<?xml version="1.0" standalone="no"?>
<!DOCTYPE svg PUBLIC "-//W3C//DTD SVG 20010904//EN"
 "http://www.w3.org/TR/2001/REC-SVG-20010904/DTD/svg10.dtd">
<svg version="1.0" xmlns="http://www.w3.org/2000/svg"
 width="1240.000000pt" height="816.000000pt" viewBox="0 0 1240.000000 816.000000"
 preserveAspectRatio="xMidYMid meet">

<g transform="translate(0.000000,816.000000) scale(0.100000,-0.100000)"
fill="#000000" stroke="none">
<path d="M4010 7785 l0 -375 -64 0 c-36 0 -67 -4 -70 -8 -3 -5 13 -26 34 -47
22 -22 40 -44 40 -51 0 -7 -85 -60 -188 -118 -104 -59 -198 -113 -208 -121
-18 -14 -17 -15 7 -6 14 5 75 18 135 28 86 14 161 18 359 17 236 0 341 -9 465
-40 14 -4 -72 49 -190 116 -118 68 -217 124 -219 126 -2 2 11 26 28 54 17 28
31 53 31 55 0 3 -24 4 -52 3 l-53 -3 -3 373 -2 372 -25 0 -25 0 0 -375z"/>
<path d="M5597 6628 c2 -277 6 -720 9 -985 l6 -481 112 -6 c61 -3 659 -8 1329
-10 l1217 -5 0 45 c0 53 6 66 78 161 l54 72 96 3 c246 7 1529 -9 1561 -20 l34
-11 -6 172 c-3 95 -14 479 -24 855 l-17 682 -70 0 c-39 0 -989 7 -2111 15
-1122 8 -2092 15 -2155 15 l-115 0 2 -502z m2839 344 c-5 -15 -82 -723 -161
-1472 -14 -134 -27 -245 -28 -246 -1 -1 -282 -5 -624 -9 -523 -6 -623 -5 -623
6 -1 41 82 1661 86 1696 l5 43 667 2 c367 2 671 1 675 0 4 -2 5 -11 3 -20z
m-1436 2 c0 -10 -48 -572 -90 -1044 -21 -245 -42 -485 -45 -535 -4 -49 -8 -97
-11 -105 -3 -13 -78 -15 -574 -19 l-570 -4 0 857 0 856 645 0 c355 0 645 -3
645 -6z m2960 -111 c1 -65 9 -399 19 -743 11 -344 16 -628 12 -631 -3 -4 -356
-10 -783 -14 l-778 -7 0 29 c0 15 5 134 10 263 6 129 19 442 30 694 11 253 22
462 25 465 6 5 1196 57 1368 60 l97 1 0 -117z"/>
<path d="M7250 5390 c-102 -3 -180 -7 -175 -9 15 -4 359 0 364 5 9 8 -9 9
-189 4z"/>
<path d="M6448 5433 c-37 -40 -26 -43 151 -43 103 0 172 4 176 10 4 7 -48 10
-149 10 -150 0 -155 1 -158 21 -3 21 -3 21 -20 2z"/>
<path d="M10310 5226 c-41 -15 -44 -27 -35 -112 l7 -64 64 0 c74 0 71 -7 53
115 -13 83 -17 87 -89 61z"/>
<path d="M10062 5220 c-18 -4 -35 -9 -37 -11 -9 -10 13 -132 26 -140 8 -5 36
-9 63 -9 l49 0 -7 53 c-14 108 -17 117 -40 116 -11 -1 -36 -5 -54 -9z"/>
<path d="M9798 5213 c-15 -4 -18 -16 -18 -66 0 -34 4 -68 9 -75 5 -8 35 -16
71 -19 l63 -6 -7 49 c-18 135 -13 124 -59 123 -23 -1 -50 -3 -59 -6z"/>
<path d="M8968 5153 c-11 -3 -18 -14 -18 -29 0 -23 3 -24 70 -24 l70 0 0 30
c0 30 -1 30 -52 29 -29 -1 -61 -3 -70 -6z"/>
<path d="M8417 5143 c-4 -3 -7 -17 -7 -30 0 -22 3 -23 70 -23 l70 0 0 30 0 30
-63 0 c-35 0 -67 -3 -70 -7z"/>
<path d="M8587 5144 c-4 -4 -7 -16 -7 -26 0 -15 8 -18 56 -18 52 0 55 1 52 23
-3 19 -10 22 -48 25 -25 2 -49 0 -53 -4z"/>
<path d="M8732 5123 c3 -27 5 -28 76 -31 39 -2 72 1 72 5 0 4 3 18 6 31 6 21
4 22 -75 22 l-82 0 3 -27z"/>
<path d="M8254 4984 c3 -28 5 -29 72 -36 38 -4 305 -12 594 -18 289 -6 584
-13 655 -15 72 -3 231 -7 355 -10 124 -2 338 -8 476 -11 l251 -7 6 33 c4 18 7
43 7 56 l0 24 -632 0 c-348 0 -893 3 -1210 7 l-577 6 3 -29z"/>
<path d="M11868 4325 c-2 -2 -163 -6 -358 -9 -345 -6 -523 -11 -855 -21 -88
-2 -324 -8 -525 -11 -201 -4 -377 -8 -392 -9 -16 -1 -70 -2 -122 -3 -90 -2
-95 -3 -99 -24 -4 -23 -4 -23 -6 1 l-1 24 -242 -7 c-309 -8 -556 -14 -933 -21
-165 -3 -350 -8 -411 -10 -61 -2 -181 -5 -265 -5 -85 0 -197 -3 -249 -7 l-95
-6 4 -78 3 -79 -31 0 c-30 0 -31 -1 -31 -46 l0 -47 68 6 c37 4 97 7 135 7 l67
0 1 68 c1 65 2 66 9 22 4 -25 8 -148 7 -275 l-1 -230 -5 197 c-3 108 -8 199
-11 201 -3 3 -65 3 -137 0 l-133 -6 -1 -91 c-1 -50 -5 -138 -9 -196 -6 -81 -7
-60 -4 92 l4 197 -48 4 -47 3 48 2 47 2 0 45 c0 45 0 45 -35 45 l-35 0 0 70
c0 67 -1 71 -27 81 -15 5 -47 9 -72 7 l-46 -3 -2 -125 c-1 -69 -2 -212 -3
-319 0 -107 -2 -192 -5 -189 -3 3 -5 146 -5 319 l0 314 -148 -3 c-81 -1 -194
-3 -252 -5 l-105 -2 -3 -35 c-7 -68 9 -200 24 -200 10 0 14 25 17 113 l3 112
2 -112 c2 -107 3 -112 25 -116 l22 -4 -22 -2 c-22 -1 -23 -5 -23 -79 0 -73 2
-80 29 -106 16 -16 34 -25 40 -22 6 4 -3 18 -21 35 l-32 28 43 67 c24 37 41
69 37 73 -10 11 38 31 51 21 6 -5 29 -8 50 -6 l38 3 6 65 6 65 1 -67 c2 -57 5
-68 20 -69 12 0 11 -3 -7 -10 -28 -11 -25 -19 29 -99 22 -32 40 -61 40 -63 0
-3 -10 -7 -21 -10 -21 -6 -21 -7 10 -46 l33 -41 -29 -11 c-15 -6 -61 -11 -102
-11 l-74 -1 34 -28 c19 -16 30 -29 24 -30 -5 0 -86 -3 -180 -5 -148 -3 -270 5
-354 22 -22 5 -23 6 -6 25 25 27 10 36 -26 15 -24 -14 -36 -16 -61 -7 -43 15
-46 14 -51 -16 -4 -28 -4 -28 -6 3 0 16 -6 35 -12 41 -8 8 -8 17 0 31 6 11 11
72 12 134 1 62 5 154 9 203 6 68 7 48 4 -80 l-5 -170 35 60 35 60 10 -28 c6
-16 11 -34 11 -40 0 -24 -31 -56 -60 -62 -19 -4 -30 -13 -30 -23 0 -13 2 -14
9 -3 7 10 13 11 29 2 19 -10 25 -6 55 41 34 52 34 53 16 74 -18 19 -18 23 -3
52 22 45 29 46 58 10 14 -18 26 -28 26 -22 0 5 -5 15 -12 22 -9 9 -9 12 0 12
7 0 12 24 15 63 l3 62 2 -62 2 -63 60 0 60 0 0 116 0 116 -372 -8 c-205 -4
-385 -8 -400 -9 -16 -1 -52 -2 -82 -3 l-54 -2 -10 -62 c-14 -80 -60 -414 -67
-490 l-6 -58 -945 0 c-747 0 -945 -3 -948 -12 -3 -7 -7 -39 -10 -70 l-6 -58
65 0 c47 0 65 -4 65 -13 0 -12 -31 -348 -95 -1022 -14 -143 -25 -275 -25 -292
l0 -33 56 0 55 0 -7 -57 c-3 -32 -8 -61 -10 -65 -2 -3 -725 -6 -1607 -6 -881
0 -1693 0 -1804 -1 l-203 -1 0 -970 0 -970 6200 0 6200 0 0 1785 0 1785 -95 0
c-52 0 -95 3 -95 8 0 4 -7 144 -15 312 -8 168 -15 329 -15 358 0 33 -4 51 -10
47 -5 -3 -10 3 -10 15 0 20 -4 20 -144 19 -80 -1 -146 -2 -148 -4z m-840 -85
c23 0 284 -19 355 -25 50 -5 57 -3 58 12 1 17 2 17 6 1 2 -10 12 -18 21 -18
33 -1 187 -19 210 -26 20 -6 22 -3 24 42 l2 49 3 -50 c3 -40 11 -57 36 -83 28
-29 32 -39 32 -90 l0 -57 65 -6 65 -5 -67 -2 -66 -2 -26 -110 c-14 -61 -27
-143 -28 -183 -1 -44 -3 -58 -6 -37 -4 32 -5 33 -11 10 l-7 -25 -411 -3 -411
-2 -11 62 c-44 249 -72 443 -67 463 7 29 90 71 159 81 39 5 47 10 48 28 2 20
2 20 6 -1 2 -13 12 -23 21 -23z m-1811 -22 c-3 -7 -5 -2 -5 12 0 14 2 19 5 13
2 -7 2 -19 0 -25z m-367 -238 l129 0 5 53 c3 28 8 70 10 92 2 22 3 -2 1 -53
l-3 -93 107 3 106 3 6 105 5 105 2 -107 2 -108 139 0 139 0 6 63 c4 34 8 87
10 117 2 30 3 3 3 -60 l-1 -115 110 0 109 0 6 80 5 80 2 -83 2 -83 133 3 132
3 6 70 5 70 2 -72 2 -73 83 -2 82 -2 -83 -3 c-119 -5 -93 -23 34 -23 86 0 104
3 104 15 0 9 -10 16 -27 16 l-28 2 27 4 c26 4 26 4 33 121 3 64 8 122 11 127
2 6 1 -47 -2 -117 l-6 -128 136 0 136 0 2 88 2 87 3 -87 4 -88 84 0 85 0 2 98
2 97 3 -97 4 -98 42 -2 42 -1 -42 -4 -43 -4 -2 -157 -2 -157 -3 158 -4 158
-82 -3 -82 -3 -5 -170 -5 -170 -5 170 -5 170 -129 0 c-95 0 -130 -3 -133 -12
-3 -9 6 -13 25 -13 38 0 91 -36 116 -79 15 -26 21 -62 27 -160 4 -69 8 -127 8
-129 1 -2 22 -3 49 -2 26 1 77 1 113 1 l66 -1 7 -127 c3 -71 15 -389 26 -708
11 -319 21 -607 22 -640 l3 -60 -1149 -3 c-633 -1 -1153 1 -1158 6 -4 4 -3
111 2 237 13 328 19 469 25 645 6 159 9 242 21 487 l7 142 -28 7 c-15 4 -62 4
-105 0 l-78 -6 -7 112 c-10 161 15 236 92 277 l38 20 -77 1 -78 0 -1 -82 c-1
-46 -5 -121 -9 -168 -6 -61 -7 -37 -3 83 l5 167 -106 0 -106 0 -2 -167 -2
-168 -6 165 -5 165 -130 0 -130 0 -12 -170 -11 -170 4 173 5 172 -83 2 -83 2
83 3 82 4 2 37 1 37 4 -37 4 -38 135 0 134 0 2 108 2 107 3 -107 4 -108 104 0
105 0 2 68 2 67 3 -67 4 -68 77 0 c243 -1 378 -1 390 -1 9 1 13 36 14 134 l2
132 3 -132 4 -133 129 0z m3097 83 c-2 -32 -3 -8 -3 52 0 61 1 87 3 58 2 -29
2 -78 0 -110z m-3710 90 c-3 -10 -5 -2 -5 17 0 19 2 27 5 18 2 -10 2 -26 0
-35z m-1940 5 c-3 -8 -6 -5 -6 6 -1 11 2 17 5 13 3 -3 4 -12 1 -19z m3460 0
c-3 -8 -6 -5 -6 6 -1 11 2 17 5 13 3 -3 4 -12 1 -19z m-3876 -483 c-8 -87 -9
-52 -5 170 5 350 8 383 11 135 2 -107 -1 -244 -6 -305z m936 463 c-3 -8 -6 -5
-6 6 -1 11 2 17 5 13 3 -3 4 -12 1 -19z m920 -55 c-2 -16 -4 -5 -4 22 0 28 2
40 4 28 2 -13 2 -35 0 -50z m-2089 -38 l-5 -75 51 -2 51 -2 -51 -3 -51 -4 -7
-74 c-3 -41 -9 -109 -12 -150 -4 -42 -9 -73 -12 -71 -5 6 30 456 36 456 3 0 2
-34 0 -75z m2782 -35 l-11 -25 6 25 c2 14 5 34 6 45 2 19 2 19 6 0 2 -12 -1
-32 -7 -45z m3525 -19 c3 -5 1 -12 -5 -16 -5 -3 -10 1 -10 9 0 18 6 21 15 7z
m-8 -53 c-3 -8 -6 -5 -6 6 -1 11 2 17 5 13 3 -3 4 -12 1 -19z m10 -300 c-2
-18 -4 -6 -4 27 0 33 2 48 4 33 2 -15 2 -42 0 -60z m-537 -104 c0 -22 -4 -24
-50 -24 -46 0 -50 2 -50 23 0 32 2 33 54 29 41 -4 46 -7 46 -28z m-4840 -211
c1 -137 -22 -1099 -26 -1119 -4 -21 -11 -22 -156 -28 -84 -3 -269 -8 -410 -12
l-258 -5 -1 233 c-1 128 -4 398 -8 601 -3 202 -6 367 -6 368 0 3 615 26 728
28 l137 1 0 -67z m-2236 -35 c3 -50 6 -116 6 -146 l0 -55 -281 6 c-155 4 -283
8 -285 10 -4 4 37 250 43 257 2 2 111 7 241 10 130 4 244 7 253 8 13 2 17 -14
23 -90z m870 82 l449 0 -7 -312 c-13 -605 -19 -833 -22 -837 -8 -9 -1142 -36
-1151 -27 -6 6 31 759 54 1100 l6 89 111 -7 c61 -3 313 -6 560 -6z m2376 -502
c0 -277 -3 -539 -6 -584 l-7 -81 -461 -6 c-253 -3 -461 -5 -461 -4 -1 3 13
650 21 945 l6 232 454 0 454 0 0 -502z m744 455 c3 -21 6 -79 6 -129 l0 -92
-67 -6 c-38 -3 -177 -8 -310 -12 l-243 -6 -1 28 c0 16 -6 76 -12 134 l-13 105
121 5 c66 3 208 7 316 8 l196 2 7 -37z m3897 5 c2 -7 3 -87 1 -177 l-3 -164
-182 6 c-100 4 -426 7 -723 8 l-541 1 -7 61 c-11 106 -7 247 7 252 14 5 832
21 1198 23 190 2 248 -1 250 -10z m-3882 -448 l2 -150 -319 0 -319 0 -7 131
c-4 72 -6 133 -4 135 4 3 478 30 584 33 l61 1 2 -150z m-4056 -57 c-6 -109
-12 -204 -12 -210 -1 -9 -14 -11 -43 -7 -24 3 -143 9 -266 13 -122 5 -225 11
-229 14 -3 4 0 92 7 197 l13 190 271 0 271 0 -12 -197z m7910 -115 c-3 -95 -7
-174 -9 -176 -1 -2 -305 0 -674 4 l-672 7 6 81 c3 45 5 118 5 163 l1 83 243 2
c133 2 437 4 674 6 l433 2 -7 -172z m-3883 -283 c0 -180 -3 -237 -12 -240 -7
-2 -154 -6 -326 -8 l-312 -5 2 237 3 236 245 5 c135 3 280 7 323 8 l77 2 0
-235z m-4097 136 c6 -6 -19 -431 -27 -438 -1 -2 -136 0 -300 4 -295 6 -297 6
-293 27 3 12 17 107 32 211 15 105 29 196 31 203 3 11 53 12 277 7 149 -4 275
-10 280 -14z m8007 -211 l0 -110 -705 0 -704 0 -5 33 c-3 17 -7 67 -10 110
l-6 77 715 0 715 0 0 -110z m43 -407 c-13 -2 -35 -2 -50 0 -16 2 -5 4 22 4 28
0 40 -2 28 -4z"/>
<path d="M10947 4184 c-16 -9 -27 -18 -24 -20 3 -3 101 -14 218 -25 188 -17
215 -17 228 -4 8 8 13 16 10 18 -6 5 -349 48 -379 47 -14 -1 -38 -8 -53 -16z"/>
<path d="M11678 3865 c-3 -6 -11 -40 -18 -77 -7 -38 -15 -68 -19 -68 -3 0 -4
26 -3 57 5 79 -4 64 -12 -19 -6 -62 -5 -68 12 -68 15 0 22 15 37 79 16 70 18
120 3 96z"/>
<path d="M11503 3833 c-21 -4 -23 -10 -23 -59 0 -53 1 -54 29 -54 16 0 38 -3
48 -7 11 -4 5 6 -14 24 -18 17 -33 34 -33 38 0 4 14 20 31 36 30 28 30 29 8
28 -13 -1 -34 -4 -46 -6z"/>
<path d="M9348 3963 c28 -2 76 -2 105 0 28 2 5 3 -53 3 -58 0 -81 -1 -52 -3z"/>
<path d="M9568 3963 c34 -2 88 -2 120 0 31 2 3 3 -63 3 -66 0 -92 -1 -57 -3z"/>
<path d="M9874 3958 c90 -7 132 -6 139 1 8 8 -29 11 -128 10 l-140 -2 129 -9z"/>
<path d="M8935 3805 c-52 -51 -16 -145 54 -145 47 0 85 39 84 86 -2 74 -87
111 -138 59z"/>
<path d="M9400 3800 c-24 -24 -27 -82 -4 -104 44 -45 116 -19 122 44 7 65 -72
106 -118 60z"/>
<path d="M9180 3790 c-60 -60 18 -153 88 -104 47 33 16 124 -43 124 -14 0 -34
-9 -45 -20z"/>
<path d="M9639 3791 c-16 -13 -23 -29 -23 -55 0 -46 23 -70 69 -70 46 0 69 24
69 70 0 41 -31 74 -69 74 -13 0 -33 -8 -46 -19z"/>
<path d="M8842 3304 c-22 -15 -22 -15 -22 -344 0 -329 0 -329 22 -344 20 -14
108 -16 758 -16 650 0 738 2 758 16 22 15 22 15 22 344 0 329 0 329 -22 344
-20 14 -108 16 -758 16 -650 0 -738 -2 -758 -16z"/>
<path d="M5758 2924 c-8 -7 -3 -132 8 -221 5 -39 8 -43 34 -43 15 0 30 7 34
15 4 11 -2 15 -23 15 l-29 0 -8 121 c-5 66 -12 117 -16 113z"/>
<path d="M3920 3185 c0 -12 20 -15 120 -15 100 0 120 3 120 15 0 13 -20 15
-120 15 -100 0 -120 -2 -120 -15z"/>
<path d="M5518 2934 c-5 -4 -8 -70 -8 -146 0 -128 1 -138 19 -138 10 0 24 7
31 15 10 13 9 15 -8 15 -21 0 -22 6 -24 131 -2 72 -6 127 -10 123z"/>
<path d="M6731 2854 c0 -27 4 -71 9 -99 6 -36 7 -23 3 45 -6 101 -14 136 -12
54z"/>
<path d="M6750 2688 c0 -12 48 -10 55 2 4 6 -5 10 -24 8 -17 -1 -31 -6 -31
-10z"/>
<path d="M7870 3191 c0 -10 98 -21 186 -21 50 0 64 3 64 15 0 13 -21 15 -125
15 -69 0 -125 -4 -125 -9z"/>
<path d="M11543 3142 c-133 -2 -163 -5 -163 -17 0 -7 5 -17 10 -20 13 -8 295
6 310 15 31 19 -7 25 -157 22z"/>
<path d="M8001 2831 c-79 -4 -116 -10 -119 -18 -3 -10 15 -13 70 -13 121 0
208 11 208 26 0 8 -9 13 -22 12 -13 -1 -74 -4 -137 -7z"/>
<path d="M3943 2793 c-112 -7 -68 -23 61 -23 98 0 126 3 136 15 11 13 3 15
-61 13 -41 -1 -102 -3 -136 -5z"/>
<path d="M11691 2688 c-1 -16 -14 -18 -135 -18 -74 0 -137 -4 -140 -8 -2 -4
-1 -14 4 -21 6 -11 32 -12 145 -2 76 6 140 12 142 14 2 2 -1 15 -6 28 -7 17
-10 19 -10 7z"/>
<path d="M7870 2373 c0 -15 20 -16 149 -6 50 3 89 9 85 12 -3 3 -57 6 -120 6
-84 0 -114 -3 -114 -12z"/>
<path d="M3784 2351 c-16 -16 10 -21 111 -21 65 0 115 4 115 9 0 9 -217 20
-226 12z"/>
<path d="M11671 2339 c-1 -19 -63 -29 -174 -29 -51 0 -68 -3 -64 -12 3 -10 36
-12 127 -10 68 1 126 4 128 7 2 2 -1 16 -6 32 -6 15 -11 21 -11 12z"/>
<path d="M6290 3934 c0 -14 14 -46 32 -70 l31 -44 -22 -24 c-31 -33 -9 -44 29
-14 29 22 30 26 25 81 -4 37 -2 57 5 57 5 0 10 9 10 20 0 18 -7 20 -55 20 -52
0 -55 -1 -55 -26z"/>
<path d="M6520 3940 c0 -11 7 -20 15 -20 8 0 15 9 15 20 0 11 -7 20 -15 20 -8
0 -15 -9 -15 -20z"/>
<path d="M6729 3942 c5 -10 17 -25 26 -32 14 -12 18 -11 26 1 20 31 11 49 -26
49 -32 0 -35 -2 -26 -18z"/>
<path d="M6542 3840 c0 -19 2 -27 5 -17 2 9 2 25 0 35 -3 9 -5 1 -5 -18z"/>
</g>
</svg>
